# xmcd CD database file
#
# Track frame offsets:
#	150
#	13717
#	31716
#	49508
#	65702
#	79962
#	92601
#	107977
#	121453
#	139346
#	155365
#	172832
#	194177
#	211354
#
# Disc length: 3017 seconds
#
# Revision: 1
# Processed by: cddbd v1.5.1PL2 Copyright (c) Steve Scherf et al.
# Submitted via: CDex 1.51
#
DISCID=c20bc70e
DTITLE=Various Artist - Nash Vegas
DYEAR=2004
DGENRE=Country
TTITLE0=Hey Good Lookin
TTITLE1=Whiskey Girl
TTITLE2=Let's Be Us Again
TTITLE3=Redneck Women
TTITLE4=Love You Out Loud
TTITLE5=Fall Into Me
TTITLE6=Save A Horse, Ride A Cowboy
TTITLE7=That's What She Gets For Loving Me
TTITLE8=Man! I Feel Like A Woman!
TTITLE9=My Front Porch Looking In
TTITLE10=Somebody
TTITLE11=Live Like You Were Dying
TTITLE12=Landslide
TTITLE13=Rhinestone Cowboy
EXTD=YEAR: 2004
EXTT0=
EXTT1=
EXTT2=
EXTT3=
EXTT4=
EXTT5=
EXTT6=
EXTT7=
EXTT8=
EXTT9=
EXTT10=
EXTT11=
EXTT12=
EXTT13=
PLAYORDER=
